<svg width="262" height="301" viewBox="0 0 262 301" fill="none" xmlns="http://www.w3.org/2000/svg">
<path d="M261.267 108.28V65.5684L0 193.954V236.666L261.267 108.28Z" fill="url(#paint0_linear_2350_2542)"/>
<path d="M261.357 65.0806L218.396 44.0996L174.435 65.5799L261.108 108.292L261.357 65.0806Z" fill="url(#paint1_linear_2350_2542)"/>
<path d="M0.219158 193.727V236.439L43.6804 257.92L87.1417 236.439L0.219158 193.727Z" fill="url(#paint2_linear_2350_2542)"/>
<path d="M0.241755 65.3162V165.228L43.703 143.747V43.8359L0.241755 65.3162Z" fill="url(#paint3_linear_2350_2542)"/>
<path d="M43.703 43.8359L0.241755 65.3162L101.901 115.272L145.362 93.7914L43.703 43.8359Z" fill="url(#paint4_linear_2350_2542)"/>
<path d="M116.262 50.9626L130.749 43.7191L145.236 50.7133L188.947 29.2323L130.749 0.757812L72.8008 29.2323L116.262 50.9626Z" fill="url(#paint5_linear_2350_2542)"/>
<path d="M160.112 186.609L116.4 208.09L217.81 258.046L261.272 236.566L160.112 186.609Z" fill="url(#paint6_linear_2350_2542)"/>
<path d="M261.264 136.656L217.803 158.137V258.048L261.264 236.568V136.656Z" fill="url(#paint7_linear_2350_2542)"/>
<path d="M145.24 250.803L130.753 258.046L116.265 250.803L72.805 272.284L130.753 300.758L188.701 272.284L145.24 250.803Z" fill="url(#paint8_linear_2350_2542)"/>
<defs>
<linearGradient id="paint0_linear_2350_2542" x1="130.694" y1="65.1135" x2="130.694" y2="236.391" gradientUnits="userSpaceOnUse">
<stop stop-color="#00A3BF"/>
<stop offset="0.5" stop-color="#00B8D8"/>
<stop offset="1" stop-color="#00A3BF"/>
</linearGradient>
<linearGradient id="paint1_linear_2350_2542" x1="217.906" y1="43.9385" x2="217.906" y2="108.176" gradientUnits="userSpaceOnUse">
<stop stop-color="#00A3BF"/>
<stop offset="0.53" stop-color="#00B7D7"/>
<stop offset="1" stop-color="#00B8D8"/>
</linearGradient>
<linearGradient id="paint2_linear_2350_2542" x1="43.6002" y1="193.818" x2="43.6002" y2="258.049" gradientUnits="userSpaceOnUse">
<stop stop-color="#00B8D8"/>
<stop offset="0.36" stop-color="#00B5D5"/>
<stop offset="1" stop-color="#00A3BF"/>
</linearGradient>
<linearGradient id="paint3_linear_2350_2542" x1="21.8977" y1="43.93" x2="21.8977" y2="165.28" gradientUnits="userSpaceOnUse">
<stop stop-color="#00A3BF"/>
<stop offset="0.34" stop-color="#00A3BF"/>
<stop offset="0.76" stop-color="#00B8D8"/>
<stop offset="1" stop-color="#00B8D8"/>
</linearGradient>
<linearGradient id="paint4_linear_2350_2542" x1="72.6526" y1="43.9307" x2="72.6526" y2="115.342" gradientUnits="userSpaceOnUse">
<stop stop-color="#00B8D8"/>
<stop offset="0.5" stop-color="#00B8D8"/>
<stop offset="1" stop-color="#00A3BF"/>
</linearGradient>
<linearGradient id="paint5_linear_2350_2542" x1="130.96" y1="1.09779" x2="130.96" y2="51.0534" gradientUnits="userSpaceOnUse">
<stop stop-color="#00A3BF"/>
<stop offset="1" stop-color="#00B8D8"/>
</linearGradient>
<linearGradient id="paint6_linear_2350_2542" x1="188.741" y1="186.525" x2="188.741" y2="258.034" gradientUnits="userSpaceOnUse">
<stop stop-color="#00B8D8"/>
<stop offset="0.31" stop-color="#00B8D8"/>
<stop offset="0.81" stop-color="#00A4C0"/>
<stop offset="1" stop-color="#00A3BF"/>
</linearGradient>
<linearGradient id="paint7_linear_2350_2542" x1="239.564" y1="136.755" x2="239.564" y2="258.055" gradientUnits="userSpaceOnUse">
<stop stop-color="#00A3BF"/>
<stop offset="1" stop-color="#00B8D8"/>
</linearGradient>
<linearGradient id="paint8_linear_2350_2542" x1="130.84" y1="250.895" x2="130.84" y2="300.851" gradientUnits="userSpaceOnUse">
<stop stop-color="#00A3BF"/>
<stop offset="1" stop-color="#00B8D8"/>
</linearGradient>
</defs>
</svg>
