<svg width="200" height="200" viewBox="0 0 200 200" fill="none" xmlns="http://www.w3.org/2000/svg">
<g clip-path="url(#clip0_556_570)">
<path d="M95.0698 76.93C92.3898 74.25 89.6698 66.56 87.9198 60.81C87.3398 58.92 84.6698 58.92 84.0898 60.81C82.3398 66.55 79.6098 74.25 76.9398 76.93C74.2698 79.61 66.5698 82.33 60.8198 84.08C58.9298 84.66 58.9298 87.33 60.8198 87.91C66.5598 89.66 74.2598 92.39 76.9398 95.06C79.6198 97.73 82.3398 105.43 84.0898 111.18C84.6698 113.07 87.3398 113.07 87.9198 111.18C89.6698 105.44 92.3998 97.74 95.0698 95.06C97.7398 92.38 105.44 89.66 111.19 87.91C113.08 87.33 113.08 84.66 111.19 84.08C105.45 82.33 97.7498 79.6 95.0698 76.93Z" fill="url(#paint0_linear_556_570)"/>
<path d="M184.29 146.1C182.21 144.02 179.45 142.88 176.51 142.88C175.74 142.88 174.98 142.96 174.23 143.12L160.34 129.23C179.78 95.84 174.43 52.81 146.8 25.19C130.57 8.95 108.97 0 86 0C63.03 0 41.43 8.95 25.19 25.19C8.95 41.43 0 63.03 0 86C0 108.97 8.95 130.57 25.19 146.81C41.77 163.39 63.88 171.95 86.13 171.95C100.97 171.95 115.87 168.13 129.23 160.35L143.12 174.24C142.96 174.98 142.88 175.74 142.88 176.52C142.88 179.46 144.02 182.22 146.1 184.3C148.24 186.44 151.06 187.52 153.88 187.52C156.7 187.52 159.51 186.45 161.66 184.3C165.95 180.01 165.95 173.03 161.66 168.74C158.94 166.02 155.13 165.03 151.61 165.76L107.93 122.08L104.1 123.91C88.07 131.57 68.86 128.27 56.3 115.71C39.92 99.33 39.92 72.69 56.3 56.31C72.68 39.93 99.32 39.93 115.7 56.31C128.26 68.87 131.56 88.08 123.9 104.11L122.07 107.94L165.75 151.62C165.01 155.14 166 158.94 168.72 161.67C170.86 163.81 173.68 164.89 176.5 164.89C179.32 164.89 182.13 163.82 184.28 161.67C188.57 157.38 188.57 150.4 184.28 146.11L184.29 146.1ZM157.42 180.04C155.47 181.99 152.3 181.99 150.35 180.04C149.41 179.1 148.89 177.84 148.89 176.5C148.89 175.16 149.41 173.91 150.35 172.96C151.33 171.99 152.61 171.5 153.89 171.5C155.17 171.5 156.45 171.99 157.43 172.96C159.38 174.91 159.38 178.08 157.43 180.03L157.42 180.04ZM124.18 47.82C103.13 26.77 68.87 26.77 47.81 47.82C26.76 68.87 26.76 103.13 47.81 124.19C62.94 139.32 85.57 144 105.31 136.44L120.4 151.53C92.1 166.4 56.69 161.35 33.67 138.33C19.69 124.35 12 105.77 12 86C12 66.23 19.7 47.65 33.67 33.67C47.65 19.69 66.23 12 86 12C105.77 12 124.35 19.7 138.33 33.67C161.34 56.68 166.39 92.11 151.53 120.4L136.44 105.31C144 85.57 139.32 62.94 124.19 47.81L124.18 47.82ZM180.04 157.42C178.09 159.37 174.92 159.37 172.97 157.42C171.02 155.47 171.02 152.3 172.97 150.35C173.91 149.41 175.17 148.89 176.51 148.89C177.85 148.89 179.1 149.41 180.05 150.35C182 152.3 182 155.47 180.05 157.42H180.04Z" fill="url(#paint1_linear_556_570)"/>
</g>
<defs>
<linearGradient id="paint0_linear_556_570" x1="58.3179" y1="86.9712" x2="113.651" y2="86.9712" gradientUnits="userSpaceOnUse">
<stop stop-color="#007AF5"/>
<stop offset="0.588923" stop-color="#BF80FF"/>
<stop offset="1" stop-color="#FFD9B3"/>
</linearGradient>
<linearGradient id="paint1_linear_556_570" x1="-3.8215" y1="97.2004" x2="191.176" y2="97.2004" gradientUnits="userSpaceOnUse">
<stop stop-color="#007AF5"/>
<stop offset="0.588923" stop-color="#BF80FF"/>
<stop offset="1" stop-color="#FFD9B3"/>
</linearGradient>
</defs>
</svg>